<?xml version="1.0" encoding="UTF-8" standalone="no"?>
<!-- Created with Inkscape (http://www.inkscape.org/) -->

<svg
   xmlns:osb="http://www.openswatchbook.org/uri/2009/osb"
   xmlns:dc="http://purl.org/dc/elements/1.1/"
   xmlns:cc="http://creativecommons.org/ns#"
   xmlns:rdf="http://www.w3.org/1999/02/22-rdf-syntax-ns#"
   xmlns:svg="http://www.w3.org/2000/svg"
   xmlns="http://www.w3.org/2000/svg"
   xmlns:xlink="http://www.w3.org/1999/xlink"
   xmlns:sodipodi="http://sodipodi.sourceforge.net/DTD/sodipodi-0.dtd"
   xmlns:inkscape="http://www.inkscape.org/namespaces/inkscape"
   width="650"
   height="767.85712"
   id="svg2"
   version="1.1"
   inkscape:version="0.48.1 "
   sodipodi:docname="Estudio Escudo UDP.svg">
  <defs
     id="defs4">
    <linearGradient
       id="linearGradient5441"
       osb:paint="solid">
      <stop
         style="stop-color:#000000;stop-opacity:1;"
         offset="0"
         id="stop5443" />
    </linearGradient>
    <linearGradient
       id="linearGradient5381"
       osb:paint="solid">
      <stop
         style="stop-color:#000000;stop-opacity:0;"
         offset="0"
         id="stop5383" />
    </linearGradient>
    <linearGradient
       id="linearGradient3895"
       osb:paint="solid">
      <stop
         style="stop-color:#008000;stop-opacity:1;"
         offset="0"
         id="stop3897" />
    </linearGradient>
    <linearGradient
       inkscape:collect="always"
       xlink:href="#linearGradient5441"
       id="linearGradient5445"
       x1="83.012001"
       y1="817.75"
       x2="101.488"
       y2="817.75"
       gradientUnits="userSpaceOnUse" />
  </defs>
  <sodipodi:namedview
     id="base"
     pagecolor="#0cee14"
     bordercolor="#666666"
     borderopacity="1.0"
     inkscape:pageopacity="0"
     inkscape:pageshadow="2"
     inkscape:zoom="0.5"
     inkscape:cx="451.90165"
     inkscape:cy="525.08282"
     inkscape:document-units="px"
     inkscape:current-layer="layer3"
     showgrid="true"
     inkscape:snap-nodes="false"
     inkscape:snap-global="false"
     showguides="false"
     inkscape:snap-from-guide="false"
     inkscape:window-width="1280"
     inkscape:window-height="720"
     inkscape:window-x="-8"
     inkscape:window-y="-8"
     inkscape:window-maximized="1"
     fit-margin-top="50"
     fit-margin-left="50"
     fit-margin-right="50"
     fit-margin-bottom="50"
     borderlayer="false"
     showborder="true"
     inkscape:showpageshadow="false">
    <inkscape:grid
       type="xygrid"
       id="grid2993"
       empspacing="5"
       visible="true"
       enabled="true"
       snapvisiblegridlinesonly="true"
       dotted="false"
       color="#2af807"
       opacity="0.38823529"
       spacingx="50px"
       spacingy="50px"
       empcolor="#0000ff"
       empopacity="0.39215686" />
  </sodipodi:namedview>
  <metadata
     id="metadata7">
    <rdf:RDF>
      <cc:Work
         rdf:about="">
        <dc:format>image/svg+xml</dc:format>
        <dc:type
           rdf:resource="http://purl.org/dc/dcmitype/StillImage" />
        <dc:title></dc:title>
      </cc:Work>
    </rdf:RDF>
  </metadata>
  <g
     inkscape:groupmode="layer"
     id="layer2"
     inkscape:label="Capa 2"
     style="display:inline"
     transform="translate(-25,-47.071426)">
    <rect
       style="fill:#0071bc;fill-opacity:1;fill-rule:evenodd;stroke:#000000;stroke-width:1;stroke-miterlimit:4;stroke-opacity:1;stroke-dasharray:none;display:inline"
       id="rect3925"
       width="275"
       height="314.28571"
       x="75"
       y="97.071449" />
    <path
       style="fill:#eac102;fill-opacity:1;stroke:none;display:inline"
       d="m 350,411.35714 274.99995,0 0,279.13358 c 0.0402,35.96212 -25.75356,37.39368 -37.27333,37.36702 l -199.72043,0 C 357.83554,727.92484 350.03142,760.29923 350,764.92857 z"
       id="path5427"
       inkscape:connector-curvature="0"
       sodipodi:nodetypes="ccccccc" />
    <path
       style="fill:#e3dce5;fill-opacity:1;stroke:#000000;stroke-width:1;stroke-linecap:butt;stroke-linejoin:miter;stroke-miterlimit:4;stroke-opacity:1;stroke-dasharray:none;display:inline"
       d="m 350,411.35714 -274.999953,0 0,279.13358 c -0.04028,35.96212 25.753513,37.39368 37.273323,37.36702 l 199.72043,0 c 30.17066,0.0671 37.97478,32.44149 38.0062,37.07083 z"
       id="path5427-0"
       inkscape:connector-curvature="0"
       sodipodi:nodetypes="ccccccc" />
    <rect
       style="fill:#ed1c24;fill-opacity:1;fill-rule:evenodd;stroke:#000000;display:inline;stroke-width:1;stroke-miterlimit:4;stroke-dasharray:none;stroke-opacity:1"
       id="rect3925-2"
       width="275"
       height="314.28571"
       x="350"
       y="97.071426" />
  </g>
  <g
     inkscape:groupmode="layer"
     id="layer3"
     inkscape:label="Capa"
     style="display:inline"
     transform="translate(-25,-41.071426)">
    <path
       id="path3441"
       style="fill:#000000;fill-opacity:1;fill-rule:evenodd;stroke:#000000;stroke-opacity:1"
       d="m 433.68267,493.16292 c 0,-0.3192 0.0426,-0.627 0.12465,-0.91581 -7.34173,4.30927 -12.27423,12.28562 -12.27423,21.42098 0,13.70683 11.11141,24.82203 24.81445,24.82203 4.97413,0 9.61781,-1.48962 13.49783,-4.01287 0.39126,-0.27361 0.84726,-0.44081 1.36408,-0.44081 1.29202,0 2.34479,1.05262 2.34479,2.35606 0,0.817 -0.60042,1.66062 -1.23883,2.06342 -4.59807,2.97165 -10.07777,4.70069 -15.96787,4.70069 -16.28344,0 -29.48854,-13.19764 -29.48854,-29.48852 0,-11.24821 6.30813,-21.03337 15.57634,-26.00006 -1.14763,-0.55481 -1.94168,-1.72523 -1.94168,-3.08565 0,-1.88865 1.53127,-3.41627 3.4237,-3.41627 1.88879,0 3.41642,1.52762 3.41642,3.41627 0,0.2052 -0.0304,0.4028 -0.0518,0.589 0.6232,-0.86262 1.63402,-1.42502 2.77769,-1.42502 1.88879,0 3.42401,1.53142 3.42401,3.42007 0,1.88482 -1.53522,3.41625 -3.42401,3.41625 -0.28576,0 -0.56606,-0.0343 -0.836,-0.10244 0.79436,0.63081 1.29596,1.59603 1.29596,2.68285 0,1.88483 -1.52763,3.41245 -3.41641,3.41245 -1.88848,0 -3.42005,-1.52762 -3.42005,-3.41245 m 24.50283,52.98813 c 2.39404,1.88104 3.2416,5.24409 1.84682,8.09034 -1.39082,2.85006 -4.55612,4.25228 -7.51256,3.52266 2.21163,-0.75241 4.13811,-2.35984 5.24013,-4.63227 1.10962,-2.26105 1.18957,-4.76909 0.42561,-6.98073 m -12.26662,2.06724 c 1.60758,2.59544 1.25038,6.0383 -1.02967,8.23854 -2.2764,2.20404 -5.73445,2.43964 -8.26529,0.74101 2.34083,0.0457 4.69688,-0.79801 6.51331,-2.55745 1.81643,-1.75182 2.74365,-4.08126 2.78165,-6.4221 m -11.2786,-2.05204 c 0.62321,2.97926 -0.88922,6.09911 -3.78092,7.39114 -2.89564,1.28441 -6.22845,0.3268 -8.02574,-2.13565 2.18884,0.84362 4.69293,0.85121 6.99578,-0.17844 2.30679,-1.02222 3.97882,-2.89567 4.81088,-5.0769 m -10.20695,-5.6583 c -0.42926,3.01726 -2.9145,5.4303 -6.08376,5.6469 -3.16165,0.22435 -5.9585,-1.82023 -6.80607,-4.74627 1.76322,1.53902 4.11167,2.40543 6.63491,2.22683 2.5196,-0.17846 4.72364,-1.36043 6.25492,-3.12746 m -7.62295,-8.97196 c -1.43641,2.68665 -4.59806,4.10408 -7.64178,3.22626 -3.04399,-0.87402 -4.98202,-3.75067 -4.77682,-6.79072 1.12877,2.04824 3.04765,3.66327 5.47604,4.36247 2.42049,0.69162 4.90209,0.3344 6.94256,-0.79801 m -4.48012,-11.3926 c -2.27244,2.02924 -5.72686,2.28384 -8.29174,0.41421 -2.56884,-1.85824 -3.39361,-5.22128 -2.16239,-8.01054 0.36116,2.31044 1.60757,4.48788 3.64442,5.9699 2.04808,1.48203 4.49532,1.99123 6.80971,1.62643 M 412.1666,508.1659 c -2.82725,1.13242 -6.15975,0.18604 -7.93058,-2.43964 -1.77843,-2.62965 -1.40237,-6.0725 0.7068,-8.27275 -0.456,2.29524 -0.0304,4.76529 1.38688,6.85532 1.40997,2.09384 3.53801,3.41246 5.8369,3.85707 m 3.60642,-10.84159 c -3.04765,0.0948 -5.85211,-1.93424 -6.62732,-5.01229 -0.75637,-3.07425 0.76762,-6.1865 3.49971,-7.52793 -1.20448,2.00264 -1.64923,4.46888 -1.04122,6.91612 0.60802,2.45105 2.16239,4.41568 4.16883,5.6241 m 7.09456,-9.15436 c -2.89564,-0.95001 -4.83732,-3.81906 -4.51052,-6.97313 0.3344,-3.15406 2.83091,-5.55569 5.85576,-5.8749 -1.82008,1.46303 -3.07806,3.63287 -3.33647,6.14091 -0.26752,2.51185 0.51316,4.89069 1.99123,6.70712 m 10.6174,-6.91233 c -2.35969,-1.85443 -3.19571,-5.16429 -1.82769,-7.96873 1.36803,-2.80825 4.48774,-4.19148 7.40618,-3.46947 -2.18488,0.74482 -4.08127,2.32564 -5.16809,4.56389 -1.08681,2.23063 -1.17042,4.69688 -0.4104,6.87431 m 107.76989,11.90562 c 0,-0.31921 -0.0428,-0.62701 -0.12466,-0.91582 7.34936,4.30928 12.28184,12.28561 12.28184,21.42098 0,13.70684 -11.1114,24.82204 -24.81444,24.82204 -4.98206,0 -9.62177,-1.48962 -13.50939,-4.01286 -0.38003,-0.27362 -0.84725,-0.44082 -1.35285,-0.44082 -1.29959,0 -2.3484,1.05263 -2.3484,2.35604 0,0.81702 0.59675,1.66064 1.23123,2.06345 4.60566,2.97164 10.08535,4.70067 15.97941,4.70067 16.28315,0 29.48091,-13.19763 29.48091,-29.48852 0,-11.2482 -6.30048,-21.03338 -15.57267,-26.00006 1.14367,-0.55481 1.93408,-1.72523 1.93408,-3.08566 0,-1.88863 -1.53124,-3.41626 -3.41243,-3.41626 -1.89243,0 -3.42009,1.52763 -3.42009,3.41626 0,0.20521 0.0305,0.40281 0.0454,0.58902 -0.61558,-0.86261 -1.6264,-1.42503 -2.77767,-1.42503 -1.88879,0 -3.41248,1.53143 -3.41248,3.42006 0,1.88484 1.52369,3.41627 3.41248,3.41627 0.28882,0 0.56999,-0.0343 0.83601,-0.10245 -0.78677,0.6308 -1.29204,1.59602 -1.29204,2.68284 0,1.88483 1.53129,3.41247 3.42008,3.41247 1.88087,0 3.41607,-1.52764 3.41607,-3.41247 m -24.49523,52.98814 c -2.39765,1.88103 -3.24521,5.24409 -1.85443,8.09034 1.38722,2.85004 4.55643,4.25227 7.52049,3.52266 -2.21921,-0.75242 -4.14204,-2.35984 -5.24803,-4.63228 -1.10963,-2.26104 -1.18563,-4.76909 -0.41803,-6.98072 m 12.25905,2.06723 c -1.6073,2.59545 -1.25008,6.0383 1.02602,8.23854 2.28397,2.20404 5.74206,2.43965 8.27287,0.74103 -2.3484,0.0456 -4.70083,-0.79803 -6.51329,-2.55745 -1.81278,-1.75184 -2.74364,-4.08128 -2.7856,-6.42212 m 11.28253,-2.05203 c -0.62715,2.97924 0.88531,6.0991 3.78486,7.39112 2.89174,1.28442 6.21692,0.32681 8.01814,-2.13563 -2.18119,0.84361 -4.68563,0.85122 -6.99212,-0.17845 -2.30677,-1.02222 -3.97487,-2.89565 -4.81088,-5.07689 m 10.20304,-5.65829 c 0.43714,3.01724 2.9224,5.43029 6.08011,5.64689 3.16927,0.22436 5.96247,-1.82024 6.80972,-4.74629 -1.75926,1.53903 -4.11168,2.40545 -6.63095,2.22684 -2.51567,-0.17844 -4.72732,-1.36041 -6.25888,-3.12744 m 7.62292,-8.97197 c 1.4328,2.68665 4.59812,4.10408 7.64968,3.22627 3.04369,-0.87403 4.97049,-3.75068 4.76897,-6.79074 -1.13243,2.04824 -3.04766,3.66327 -5.46817,4.36249 -2.42837,0.69161 -4.90604,0.3344 -6.95048,-0.79802 m 4.48806,-11.39259 c 2.26085,2.02923 5.71894,2.28383 8.28412,0.4142 2.56493,-1.85824 3.40094,-5.2213 2.16209,-8.01054 -0.36086,2.31043 -1.60725,4.48787 -3.64805,5.9699 -2.03684,1.48202 -4.48775,1.99124 -6.79816,1.62644 m 0.16417,-11.97782 c 2.8236,1.13242 6.15606,0.18605 7.93085,-2.43965 1.77087,-2.62964 1.40209,-6.07251 -0.71076,-8.27275 0.44843,2.29525 0.0305,4.76528 -1.3832,6.85533 -1.41728,2.09383 -3.54533,3.41246 -5.83689,3.85707 m -3.61375,-10.84159 c 3.04371,0.0948 5.8597,-1.93423 6.6234,-5.01229 0.7676,-3.07426 -0.76006,-6.18651 -3.49609,-7.52794 1.21239,2.00264 1.64921,4.46889 1.04123,6.91614 -0.608,2.45103 -2.1545,4.41566 -4.16854,5.62409 m -7.09484,-9.15436 c 2.89566,-0.95003 4.83759,-3.81907 4.51083,-6.97312 -0.33079,-3.15406 -2.82725,-5.55571 -5.8597,-5.87492 1.82006,1.46303 3.08169,3.63287 3.34766,6.14092 0.25841,2.51184 -0.52042,4.89068 -1.99879,6.70712 m -10.61346,-6.91233 c 2.36367,-1.85443 3.19207,-5.16429 1.82006,-7.96874 -1.36799,-2.80825 -4.48769,-4.19147 -7.39854,-3.46946 2.18125,0.74481 4.07368,2.32565 5.16414,4.56388 1.09442,2.23064 1.17043,4.69688 0.41434,6.87432 m -86.07911,38.54028 c 2.7549,-0.19001 6.90457,-1.52002 9.94462,-5.18329 -1.34127,0.003 -2.8689,-0.25081 -4.55248,-0.87782 2.8008,-0.589 6.93132,-2.61064 9.40896,-6.99972 -1.43642,0.33061 -3.14249,0.39901 -5.13372,0.0304 2.88409,-1.15902 7.02251,-4.25227 8.43979,-9.80037 -1.50482,0.40281 -3.31731,0.51301 -5.46815,0.114 2.95646,-1.1856 7.22773,-4.40427 8.5386,-10.22217 -1.48203,0.55479 -3.30971,0.86261 -5.5481,0.65361 2.58406,-1.31482 6.10292,-4.39669 7.32653,-9.38238 -1.29962,0.44082 -2.86524,0.69542 -4.70449,0.61561 2.96801,-1.71002 7.12894,-4.41188 7.09093,-11.15318 0,0.14045 -4.38132,0.16324 -7.72173,-0.87782 -2.23049,-0.87022 -3.81132,-3.04005 -3.81132,-5.5785 4.39288,2.75884 7.52019,1.04502 11.35826,2.18883 -2.19645,-2.69803 -5.0693,-3.04764 -12.00822,-2.35224 -3.99372,0.40281 -9.22261,1.60744 -13.77904,-3.31364 -0.52046,-0.56241 0.3192,-2.07863 1.53157,-1.00322 5.8445,5.16809 12.44508,3.10466 17.51072,3.32507 -3.03246,-1.26163 -4.72729,-5.3049 -8.80856,-5.3049 -2.48524,-0.007 -4.05087,0.99941 -5.4949,2.33703 -0.20672,-0.94622 -0.3192,-1.86583 -0.3192,-2.87284 0,-2.49664 0.78645,-5.12249 2.36728,-6.83252 2.36,-2.54604 9.71693,-2.20784 9.70172,-2.21544 2.02924,-4.36628 2.95647,-8.26134 16.24909,-8.26134 12.70346,0 14.21592,7.63052 15.07109,11.2216 1.63765,6.88571 2.67126,11.8752 7.28849,13.44463 -2.2724,0.46741 -4.61723,-0.3192 -5.63564,-1.18182 -0.52043,7.47853 4.76527,9.78517 4.76527,9.78517 -1.47439,0.31161 -3.67085,-0.2356 -4.76527,-0.94622 0.8816,6.44491 1.63406,7.69893 4.60202,9.40516 -1.83163,0.08 -3.40119,-0.17085 -4.70083,-0.61181 1.21999,4.9895 4.74248,8.07135 7.32655,9.38238 -2.24206,0.2128 -4.06212,-0.0948 -5.55573,-0.65361 1.31484,5.81409 5.59373,9.04035 8.54655,10.22598 -2.14721,0.39521 -3.95968,0.28485 -5.47213,-0.11796 1.42489,5.5481 4.16092,8.64515 7.04137,9.80037 -1.99124,0.3724 -4.34334,0.32301 -5.78369,-0.007 2.48526,4.38908 6.60846,6.40692 9.41654,6.99973 -1.69086,0.62321 -3.21086,0.88162 -4.5561,0.87783 1.558,4.23326 6.12176,7.14411 8.87301,7.33412 -1.08287,1.04881 -2.28767,0.93482 -2.28007,0.91581 0.96522,0.24321 1.98761,0.40662 3.01727,0.40662 6.84771,0 12.3998,-5.54811 12.3998,-12.39962 0,-6.29293 -4.96685,-10.35519 -10.83779,-12.29702 -4.03204,-1.33383 -6.55531,-3.40487 -6.69967,-7.85854 -0.0608,-1.93044 0.7448,-3.65567 1.84682,-5.0731 3.60642,-4.62088 5.87887,-11.34699 5.87887,-17.6627 0,-0.56621 0.24621,-1.44023 1.06767,-1.40223 0.88161,0.0456 1.28439,0.79042 1.28439,0.77901 1.42884,-10.59459 -2.77009,-22.6142 -3.13882,-27.47068 -0.41043,-5.41129 21.95675,-6.2473 20.92313,30.84515 6.52095,-19.71856 2.47007,-29.53033 4.08888,-29.87234 2.67523,-0.57 4.96288,16.31749 1.14398,31.60137 4.82608,-9.31777 7.04137,-20.19737 8.58054,-24.60924 1.88846,-5.4151 22.6408,2.88425 9.84581,37.30526 10.70099,-18.13772 9.20776,-28.73611 10.87977,-28.73231 2.72083,0.003 1.18166,20.67995 -5.72685,35.43942 8.55013,-6.14851 16.70144,-15.21927 19.84031,-18.69253 3.87971,-4.27507 19.19791,13.89305 -12.04259,42.13515 16.30623,-7.60394 20.89674,-15.61828 22.13552,-14.68346 1.99124,1.50103 -9.30649,15.26487 -22.25713,23.49961 13.23187,-2.02162 26.9425,-6.12191 32.30816,-7.55073 7.26575,-1.94182 14.84704,17.2789 -39.04186,27.74049 20.97638,8.27275 34.47056,5.93571 34.63018,7.47852 0.25836,2.48906 -21.52754,2.88807 -38.41108,-2.01023 10.46536,6.44872 23.67046,12.12602 28.39773,14.13626 5.9053,2.51564 1.2884,18.82932 -40.8811,-2.91085 23.08554,17.3093 39.56262,22.32158 39.19784,24.03542 -0.55879,2.65245 -22.94117,-7.66474 -43.91757,-21.39438 13.04185,15.12807 32.95817,31.60895 39.04953,37.65487 7.20126,7.14792 -26.83609,17.73111 -48.85369,-34.08281 4.07763,18.92815 11.51423,27.86969 10.36661,28.73231 -1.75172,1.31862 -10.8606,-12.72642 -16.10835,-27.65688 1.73282,9.53436 4.97413,19.58935 6.13332,23.3932 1.50844,4.9629 -11.14181,10.62879 -19.91632,-23.54901 -0.49398,12.23621 1.58477,19.11434 0.50164,19.42214 -1.5997,0.45221 -3.98248,-8.85415 -4.84128,-20.28095 -1.3413,6.70712 -2.21926,13.05703 -2.46613,15.85007 -0.38002,4.32449 -11.19136,5.03509 -9.24177,-20.34935 -5.45324,2.18884 -9.29889,7.51654 -9.29889,13.74484 0,8.17394 6.62366,14.79746 14.79381,14.79746 2.01008,0 3.88731,-0.38381 5.63928,-1.10962 1.3261,-0.5624 2.79685,-0.87402 4.33575,-0.87402 6.16368,0 11.16853,5.0009 11.16853,11.16841 0,2.92604 -1.15154,5.62789 -2.98686,7.61912 -3.24158,3.68607 -6.12202,7.61914 -8.5769,11.90182 6.75288,2.21924 12.9318,5.7039 18.25946,10.17277 11.78781,1.95323 17.47275,5.99271 19.71084,9.73198 1.30718,1.99124 2.06719,4.38147 2.06719,6.94273 0,2.91084 -0.98406,5.58988 -2.63327,7.72553 0.21281,-0.92723 0.32683,-1.89244 0.32683,-2.88426 0,-2.92985 -0.99562,-5.63169 -2.67529,-7.77493 0.0397,0.34581 0.0487,0.69541 0.0487,1.04502 0,4.22187 -2.07089,7.96493 -5.2553,10.25637 0.7524,-1.50482 1.17038,-3.20344 1.17038,-5.00087 0,-5.2555 -3.5988,-9.66738 -8.50849,-10.8986 -0.89285,-0.22801 -1.81643,-0.34581 -2.77404,-0.34581 -0.836,0 -1.64921,0.0876 -2.4205,0.25081 -1.13634,0.25476 -2.21161,0.67641 -3.19202,1.24262 -1.81279,1.04882 -3.31004,2.58024 -4.3017,4.43088 0.0305,-2.99066 0.84725,-5.46069 2.59923,-7.61533 1.23124,-1.24262 0.80929,-2.64106 -0.0699,-3.33647 -6.28164,-4.60568 -14.45544,-6.94272 -22.83082,-6.94272 -3.27563,0 -6.41085,0.4066 -9.43571,1.20462 -0.26751,0.076 -0.55484,0.11401 -0.84724,0.11401 -1.76718,0 -3.34045,-1.34144 -3.34045,-3.10086 0,-1.12103 0.63085,-2.26104 1.57327,-2.98685 1.41756,-0.90822 2.36757,-2.30284 2.36757,-4.10788 0,-2.81584 -2.27642,-5.09589 -5.08846,-5.09589 -2.2533,0 -4.21411,1.48964 -4.88686,3.52266 -0.33441,1.15143 -0.56607,2.61066 -0.56607,3.87608 0,7.29613 5.91656,13.20523 13.20506,13.20523 3.37844,0 6.4489,-1.25783 8.7858,-3.34406 1.01081,1.18563 1.6264,2.73225 1.6264,4.41187 0,1.41743 -0.44446,2.73606 -1.18926,3.82287 1.34524,-0.475 2.83088,-0.74861 4.34333,-0.74861 3.36684,0 6.41847,1.28063 8.70976,3.37826 -2.14325,2.28004 -5.11854,3.77347 -8.42858,4.02807 2.92241,2.62965 4.76924,6.44112 4.76924,10.68198 0,7.93835 -6.4373,14.37567 -14.3758,14.37567 -1.44769,0 -2.81204,-0.2052 -4.13812,-0.60801 -2.6488,-0.81702 -4.57923,-3.29087 -4.57923,-6.20552 0,-3.58726 2.91085,-6.49431 6.48686,-6.49431 3.01724,0 5.53656,2.06343 6.27376,4.84509 1.18564,-1.53144 1.90399,-3.45427 1.90399,-5.54431 0,-3.78866 -2.31441,-7.04531 -5.62408,-8.37914 -7.46732,-3.00585 -13.74104,-8.13215 -18.11113,-14.74806 -0.07,0.61561 -0.1216,1.26922 -0.1216,1.90003 0,7.26953 4.51813,13.48264 10.90982,15.97168 -1.58445,1.84684 -3.94051,3.01726 -6.5665,3.01726 -2.39009,0 -4.56373,-0.97662 -6.13331,-2.54225 -0.07,0.6118 -0.0942,1.23502 -0.0942,1.86583 0,7.26953 4.52969,13.48264 10.91377,15.97168 -1.5884,1.84684 -3.94077,3.02106 -6.57043,3.02106 -1.42125,0 -2.76252,-0.3382 -3.94449,-0.95381 0.77917,3.11605 -0.26143,6.51711 -2.88044,8.72115 -0.14592,0.11765 -0.27969,0.22435 -0.4256,0.3268 -0.75243,0.55861 -2.20405,1.69483 -2.4281,2.51564 -0.21888,-0.82081 -1.67598,-1.95703 -2.43599,-2.51564 -0.14289,-0.10245 -0.27969,-0.20915 -0.41801,-0.3268 -2.6257,-2.20404 -3.66691,-5.6051 -2.88046,-8.72115 -1.18925,0.61561 -2.53084,0.95381 -3.95571,0.95381 -2.62599,0 -4.97809,-1.17422 -6.56651,-3.02106 6.38775,-2.48904 10.91379,-8.70215 10.91379,-15.97168 0,-0.63081 -0.0304,-1.25403 -0.1003,-1.86583 -1.56564,1.56563 -3.73927,2.54225 -6.12966,2.54225 -2.61809,0 -4.9781,-1.17042 -6.56652,-3.01726 6.38806,-2.48904 10.91379,-8.70215 10.91379,-15.97168 0,-0.63081 -0.0577,-1.28442 -0.11855,-1.90003 -4.37008,6.61591 -10.65175,11.74221 -18.11113,14.74806 -3.31761,1.33383 -5.6317,4.59048 -5.6317,8.37914 0,2.09004 0.71807,4.01287 1.90763,5.54431 0.73327,-2.78166 3.26047,-4.84509 6.27011,-4.84509 3.58331,0 6.49052,2.90705 6.49052,6.49431 0,2.91465 -1.93439,5.3885 -4.58288,6.20552 -1.31878,0.40281 -2.68285,0.60801 -4.13843,0.60801 -7.93818,0 -14.37549,-6.43732 -14.37549,-14.37567 0,-4.24086 1.85443,-8.05233 4.76892,-10.68198 -3.31365,-0.25476 -6.28135,-1.74803 -8.42854,-4.02807 2.2992,-2.09763 5.3505,-3.37826 8.70975,-3.37826 1.51243,0 2.99446,0.27361 4.34363,0.74861 -0.74116,-1.08681 -1.18197,-2.40544 -1.18197,-3.82287 0,-1.67962 0.60801,-3.22624 1.62278,-4.41187 2.33689,2.08623 5.40369,3.34406 8.7818,3.34406 7.29248,0 13.20538,-5.9091 13.20538,-13.20523 0,-1.26542 -0.23104,-2.72465 -0.56635,-3.87608 -0.67246,-2.03302 -2.62965,-3.52266 -4.87929,-3.52266 -2.81966,0 -5.09574,2.28005 -5.09574,5.09589 0,1.80504 0.95001,3.19966 2.36364,4.10788 0.94607,0.72581 1.58084,1.86582 1.58084,2.98685 0,1.75942 -1.58084,3.10086 -3.33647,3.10086 -0.30097,0 -0.58156,-0.038 -0.85517,-0.11401 -3.01725,-0.79802 -6.15975,-1.20462 -9.42781,-1.20462 -8.38295,0 -16.5531,2.33704 -22.83081,6.94272 -0.88556,0.69541 -1.30357,2.09385 -0.073,3.33647 1.74438,2.15464 2.5804,4.62467 2.6032,7.61533 -0.99958,-1.85064 -2.49285,-3.38206 -4.31323,-4.43088 -0.97647,-0.56621 -2.05204,-0.98802 -3.1881,-1.24262 -0.77158,-0.16325 -1.58843,-0.25081 -2.42079,-0.25081 -0.95762,0 -1.88088,0.11766 -2.77011,0.34581 -4.91363,1.23122 -8.51215,5.6431 -8.51215,10.8986 0,1.79743 0.42166,3.49605 1.17042,5.00087 -3.18081,-2.29144 -5.24804,-6.0345 -5.24804,-10.25637 0,-0.34961 0,-0.69921 0.0394,-1.04502 -1.67202,2.14324 -2.67524,4.84508 -2.67524,7.77493 0,0.99182 0.11855,1.95703 0.33075,2.88426 -1.64923,-2.13565 -2.6336,-4.81469 -2.6336,-7.72553 0,-2.56126 0.76002,-4.95149 2.06359,-6.94273 2.24569,-3.73927 7.93059,-7.77875 19.72234,-9.73198 5.32009,-4.46887 11.49901,-7.95353 18.25918,-10.17277 -2.46245,-4.28268 -5.3429,-8.21575 -8.58055,-11.90182 -1.83924,-1.99123 -2.98291,-4.69308 -2.98291,-7.61912 0,-6.16751 4.99329,-11.16841 11.16826,-11.16841 1.53157,0 3.00205,0.31162 4.33602,0.87402 1.74408,0.72581 3.62132,1.10962 5.63169,1.10962 8.17016,0 14.79353,-6.62352 14.79353,-14.79746 0,-6.2283 -3.84568,-11.556 -9.29862,-13.74484 1.94927,25.38444 -8.85416,24.67384 -9.23812,20.34935 -0.24624,-2.79304 -1.12087,-9.14295 -2.46244,-15.85007 -0.86247,11.4268 -3.2489,20.73316 -4.85253,20.28095 -1.07923,-0.3078 0.99925,-7.18593 0.51681,-19.42214 -8.78577,34.1778 -21.43634,28.51191 -19.92755,23.54901 1.16646,-3.80385 4.40806,-13.85884 6.1333,-23.3932 -5.24805,14.93046 -14.35665,28.9755 -16.10864,27.65688 -1.14761,-0.86262 6.29687,-9.80416 10.3666,-28.73231 -22.01,51.81392 -56.05465,41.23073 -48.84972,34.08281 6.0877,-6.04592 26.0037,-22.5268 39.04553,-37.65487 -20.98001,13.72964 -43.35875,24.04683 -43.92117,21.39438 -0.36086,-1.71384 16.11624,-6.72612 39.20149,-24.03542 -42.16159,21.74017 -46.78642,5.42649 -40.88477,2.91085 4.73093,-2.01024 17.93631,-7.68754 28.40535,-14.13626 -16.8875,4.8983 -38.67314,4.49929 -38.41108,2.01023 0.15505,-1.54281 13.6462,0.79423 34.62622,-7.47852 -53.88861,-10.46159 -46.30763,-29.68231 -39.0343,-27.74049 5.3581,1.42882 19.07634,5.52911 32.30817,7.55073 -12.95822,-8.23474 -24.24807,-21.99858 -22.26444,-23.49961 1.23882,-0.93482 5.82931,7.07952 22.13524,14.68346 -31.23261,-28.2421 -15.92227,-46.41022 -12.04226,-42.13515 3.14646,3.47326 11.28985,12.54402 19.8476,18.69253 -6.90853,-14.75947 -8.45499,-35.43563 -5.73415,-35.43942 1.67202,-0.003 0.17936,10.59459 10.87945,28.73231 -12.79469,-34.42101 7.96493,-42.72036 9.85372,-37.30526 1.53127,4.41187 3.75052,15.29147 8.58055,24.60924 -3.82682,-15.28388 -1.54282,-32.17137 1.13242,-31.60137 1.62247,0.34201 -2.42839,10.15378 4.09252,29.87234 -1.02602,-37.09245 21.33358,-36.25644 20.92317,-30.84515 -0.36845,4.85648 -4.56374,16.87609 -3.1349,27.47068 0,0.0121 0.39884,-0.73341 1.28047,-0.77901 0.82081,-0.038 1.06797,0.83602 1.06797,1.40223 0,6.31571 2.27244,13.04182 5.87855,17.6627 1.09837,1.41743 1.90763,3.14266 1.84684,5.0731 -0.14289,4.45367 -2.6713,6.52471 -6.69938,7.85854 -5.86365,1.94183 -10.83778,6.00409 -10.83778,12.29702 0,6.85151 5.54808,12.39962 12.39947,12.39962 2.74364,0 5.28208,-0.89303 7.33413,-2.39405 0,0 -1.49329,-0.50922 -2.26091,-0.91961"
       inkscape:connector-curvature="0" />
    <path
       id="path3383-0"
       style="fill:#0071bc;fill-opacity:1;fill-rule:nonzero;stroke:#000000;stroke-opacity:1"
       d="m 192.96179,500.91405 c 0,-6.31748 -6.92359,-12.62682 -15.47029,-12.62682 -7.85922,0 -14.35568,3.90113 -15.34419,9.00637 -19.12328,-19.57482 3.61638,-31.2294 13.71702,-31.2294 9.64097,0 16.48321,2.99398 21.03927,7.73311 -2.55058,-3.95402 -3.94181,-8.60772 -3.94181,-13.656 0,-12.03697 8.29042,-22.75187 19.54228,-25.33906 11.24779,2.58719 19.53007,13.30209 19.53007,25.33906 0,5.04828 -1.39123,9.70198 -3.93774,13.656 4.55606,-4.73913 11.39423,-7.73311 21.0352,-7.73311 10.10064,0 32.8403,11.65458 13.71702,31.2294 -0.98851,-5.10524 -7.48497,-9.00637 -15.35232,-9.00637 -8.53856,0 -15.46216,6.30934 -15.46216,12.62682 l 0,39.36117 39.3571,0 c 6.31341,0 12.62682,-6.92766 12.62682,-15.47029 0,-7.86329 -3.9052,-14.36382 -9.01044,-15.34419 19.57889,-19.13141 31.22941,3.61231 31.22941,13.71702 0,9.6369 -2.99399,16.47914 -7.73311,21.03927 3.95401,-2.55058 8.60771,-3.94181 13.65193,-3.94181 12.04103,0 22.75593,8.29042 25.34313,19.53821 -2.5872,11.25186 -13.3021,19.53414 -25.34313,19.53414 -5.04422,0 -9.69792,-1.39123 -13.65193,-3.93775 4.73912,4.552 7.73311,11.39424 7.73311,21.03114 0,10.10877 -11.65052,32.84437 -31.22941,13.71702 5.10524,-0.98037 9.01044,-7.4809 9.01044,-15.34419 0,-8.54669 -6.31341,-15.46622 -12.62682,-15.46622 l -39.3571,0 0,39.3571 c 0,6.31341 6.9236,12.62682 15.46216,12.62682 7.86735,0 14.36381,-3.90113 15.35232,-9.00637 19.12328,19.57889 -3.61638,31.23347 -13.71702,31.23347 -9.64097,0 -16.47914,-3.00212 -21.0352,-7.73311 2.54651,3.94995 3.93774,8.59958 3.93774,13.65193 0,12.03697 -8.29042,22.75186 -19.53821,25.33906 -11.25186,-2.5872 -19.53414,-13.30209 -19.53414,-25.33906 0,-5.05235 1.39123,-9.70198 3.94181,-13.65193 -4.55606,4.73099 -11.3983,7.73311 -21.03927,7.73311 -10.10064,0 -32.8403,-11.65458 -13.71702,-31.23347 0.98851,5.10524 7.48497,9.00637 15.34419,9.00637 8.5467,0 15.47029,-6.31341 15.47029,-12.62682 l 0,-39.3571 -39.35303,0 c -6.31341,0 -12.62682,6.91953 -12.62682,15.46622 0,7.86329 3.9052,14.36382 9.0023,15.34419 -19.57075,19.12735 -31.23347,-3.60825 -31.23347,-13.71702 0,-9.6369 3.00619,-16.47914 7.73718,-21.03114 -3.94995,2.54652 -8.59958,3.93775 -13.656,3.93775 -12.0329,0 -22.747806,-8.29042 -25.330926,-19.53821 2.58312,-11.25186 13.298026,-19.53414 25.330926,-19.53414 5.05642,0 9.70605,1.39123 13.656,3.94181 -4.73099,-4.56013 -7.73718,-11.40237 -7.73718,-21.03927 0,-10.10471 11.66272,-32.84843 31.23347,-13.71702 -5.0971,0.98037 -9.0023,7.4809 -9.0023,15.34419 0,8.54263 6.31341,15.47029 12.62682,15.47029 l 39.35303,0 0,-39.36117 z"
       inkscape:connector-curvature="0" />
    <path
       id="path3387-9"
       style="fill:#006ec7;fill-opacity:1;fill-rule:evenodd;stroke:none"
       d="m 115.43682,434.80225 c 5.06863,0 9.18536,4.62929 9.18536,10.34065 l 0,7.23275 7.22056,0 c 5.71542,0 10.34471,4.11674 10.34471,9.18129 0,5.0727 -4.62929,9.18536 -10.34471,9.18536 l -7.22056,0 0,7.19615 c 0,5.71135 -4.11673,10.34065 -9.18536,10.34065 -5.06862,0 -9.17722,-4.6293 -9.17722,-10.34065 l 0,-7.19615 -7.208351,0 c -5.71135,0 -10.34064,-4.11266 -10.34064,-9.18536 0,-5.06455 4.62929,-9.18129 10.34064,-9.18129 l 7.208351,0 0,-7.23275 c 0,-5.71136 4.1086,-10.34065 9.17722,-10.34065"
       inkscape:connector-curvature="0" />
    <path
       id="path3391-9"
       style="fill:#006ec7;fill-opacity:1;fill-rule:evenodd;stroke:none"
       d="m 311.96242,434.80225 c 5.06862,0 9.18536,4.62929 9.18536,10.34065 l 0,7.23275 7.22055,0 c 5.71543,0 10.34065,4.11674 10.34065,9.18129 0,5.0727 -4.62522,9.18536 -10.34065,9.18536 l -7.22055,0 0,7.19615 c 0,5.71135 -4.11674,10.34065 -9.18536,10.34065 -5.06863,0 -9.18536,-4.6293 -9.18536,-10.34065 l 0,-7.19615 -7.20021,0 c -5.71136,0 -10.34065,-4.11266 -10.34065,-9.18536 0,-5.06455 4.62929,-9.18129 10.34065,-9.18129 l 7.20021,0 0,-7.23275 c 0,-5.71136 4.11673,-10.34065 9.18536,-10.34065"
       inkscape:connector-curvature="0" />
    <path
       id="path3395-7"
       style="fill:#006ec7;fill-opacity:1;fill-rule:evenodd;stroke:none"
       d="m 311.96242,631.34167 c 5.06862,0 9.18536,4.6293 9.18536,10.34065 l 0,7.23276 7.22055,0 c 5.71543,0 10.34065,4.1086 10.34065,9.18129 0,5.06862 -4.62522,9.18129 -10.34065,9.18129 l -7.22055,0 0,7.19615 c 0,5.71135 -4.11674,10.34471 -9.18536,10.34471 -5.06863,0 -9.18536,-4.63336 -9.18536,-10.34471 l 0,-7.19615 -7.20021,0 c -5.71136,0 -10.34065,-4.11267 -10.34065,-9.18129 0,-5.07269 4.62929,-9.18129 10.34065,-9.18129 l 7.20021,0 0,-7.23276 c 0,-5.71135 4.11673,-10.34065 9.18536,-10.34065"
       inkscape:connector-curvature="0" />
    <path
       id="path3399-9"
       style="fill:#006ec7;fill-opacity:1;fill-rule:evenodd;stroke:none"
       d="m 115.43682,631.34167 c 5.06863,0 9.18536,4.6293 9.18536,10.34065 l 0,7.23276 7.22056,0 c 5.71542,0 10.34471,4.1086 10.34471,9.18129 0,5.06862 -4.62929,9.18129 -10.34471,9.18129 l -7.22056,0 0,7.19615 c 0,5.71135 -4.11673,10.34471 -9.18536,10.34471 -5.06862,0 -9.17722,-4.63336 -9.17722,-10.34471 l 0,-7.19615 -7.208351,0 c -5.71135,0 -10.34064,-4.11267 -10.34064,-9.18129 0,-5.07269 4.62929,-9.18129 10.34064,-9.18129 l 7.208351,0 0,-7.23276 c 0,-5.71135 4.1086,-10.34065 9.17722,-10.34065"
       inkscape:connector-curvature="0" />
    <path
       id="path3425"
       style="fill:#ffffff;fill-opacity:1;fill-rule:nonzero;stroke:#000000;stroke-opacity:1"
       d="m 152.74941,185.63964 c -3.68691,-5.3031 -11.67945,-7.56955 -16.9857,-3.82896 -4.88958,3.43754 -6.65097,9.5582 -4.27404,14.27733 -23.33049,-8.07145 -16.01347,-27.80971 -9.73814,-32.23212 5.99755,-4.21723 11.99826,-4.69387 17.59809,-2.71153 -3.89526,-2.2033 -7.48116,-5.50196 -10.42943,-9.74128 -7.03608,-10.1043 -8.15037,-22.73388 -2.66734,-29.82994 8.5039,-2.75572 19.91504,2.61682 26.94796,12.72428 2.95458,4.24248 4.80752,8.75643 5.53353,13.19146 0.0632,-5.96914 2.56317,-11.48689 8.55441,-15.70727 6.27533,-4.41925 27.21942,-4.58971 26.77434,20.22438 -3.59221,-3.85422 -9.91174,-4.28667 -14.80133,-0.84281 -5.30625,3.74057 -5.92179,12.07086 -2.22541,17.3708 l 35.46449,51.23175 35.46448,-51.23175 c 3.69323,-5.29994 3.08085,-13.63023 -2.22857,-17.3708 -4.88642,-3.44386 -11.20595,-3.01141 -14.79817,0.84281 -0.44508,-24.81409 20.49901,-24.64363 26.77118,-20.22438 5.99125,4.22038 8.49128,9.73813 8.55442,15.70727 0.72917,-4.43503 2.5821,-8.94898 5.53668,-13.19146 7.02977,-10.10746 18.44406,-15.48 26.9448,-12.72428 5.48619,7.09606 4.37191,19.72564 -2.66417,29.82994 -2.95143,4.23932 -6.53733,7.53798 -10.42943,9.74128 5.59667,-1.98234 11.60368,-1.5057 17.59493,2.71153 6.27534,4.42241 13.59551,24.16067 -9.73498,32.23212 2.37693,-4.71913 0.61554,-10.83979 -4.27405,-14.27733 -5.30626,-3.74059 -13.29878,-1.47414 -16.98886,3.82896 l -41.68615,60.21545 41.68615,60.2186 c 3.69008,5.3031 11.6826,7.56954 16.98886,3.82896 4.88959,-3.44071 6.65098,-9.56452 4.27405,-14.2805 23.33049,8.06829 16.01032,27.80972 9.73498,32.22897 -5.99125,4.22354 -11.99826,4.70334 -17.59493,2.71784 3.8921,2.20647 7.478,5.49565 10.42943,9.73813 7.03608,10.11061 8.15036,22.73704 2.66417,29.82994 -8.50074,2.75572 -19.91503,-2.61998 -26.9448,-12.72428 -2.95458,-4.23933 -4.80751,-8.75643 -5.53668,-13.18831 -0.0632,5.96599 -2.56317,11.48058 -8.55442,15.70097 -6.27217,4.41925 -27.21626,4.58971 -26.77118,-20.22123 3.59222,3.85422 9.91175,4.28351 14.79817,0.84281 5.30942,-3.73742 5.9218,-12.07086 2.23489,-17.37081 l -35.4708,-51.23174 -35.46449,51.23174 c -3.69638,5.29995 -3.08084,13.63339 2.22541,17.37081 4.88959,3.4407 11.20912,3.01141 14.80133,-0.84281 0.44508,24.81094 -20.49901,24.64048 -26.77434,20.22123 -5.99124,-4.22039 -8.49127,-9.73498 -8.55441,-15.70097 -0.72601,4.43188 -2.57895,8.94898 -5.53353,13.18831 -7.03292,10.1043 -18.44406,15.48 -26.94796,12.72428 -5.48303,-7.0929 -4.36874,-19.71933 2.66734,-29.82994 2.94827,-4.24248 6.53417,-7.53166 10.42943,-9.73813 -5.59983,1.9855 -11.60054,1.5057 -17.59809,-2.71784 -6.27533,-4.41925 -13.59235,-24.16068 9.73814,-32.22897 -2.37693,4.71598 -0.61554,10.83979 4.27404,14.2805 5.30625,3.74058 13.29879,1.47414 16.9857,-3.82896 l 41.68932,-60.2186 -41.68932,-60.21545 z"
       inkscape:connector-curvature="0" />
    <path
       id="path3415"
       style="fill:#eac102;fill-opacity:1;fill-rule:evenodd;stroke:#000000;stroke-opacity:1"
       d="m 350,315.50934 274.99847,0 0,44.895 -274.99847,0 0,-44.895 z"
       inkscape:connector-curvature="0" />
    <path
       id="path3417"
       style="fill:#eac102;fill-opacity:1;fill-rule:evenodd;stroke:#000000;stroke-opacity:1"
       d="m 350,225.7257 275,0 0,44.89193 -275,0 0,-44.89193 z"
       inkscape:connector-curvature="0" />
    <path
       id="path3419"
       style="fill:#eac102;fill-opacity:1;fill-rule:evenodd;stroke:#000000;stroke-opacity:1"
       d="m 350,135.92096 275,0 0,44.89193 -275,0 0,-44.89193 z"
       inkscape:connector-curvature="0" />
  </g>
  <g
     inkscape:label="Capa 1"
     inkscape:groupmode="layer"
     id="layer1"
     style="display:inline"
     transform="translate(-25,-243.4336)">
    <path
       style="fill:none;stroke:#000000;stroke-width:3;stroke-linecap:butt;stroke-linejoin:miter;stroke-miterlimit:4;stroke-opacity:1;stroke-dasharray:none"
       d="M 74.294066,293.02808 74.18506,886.1273 c 0.288702,26.4225 20.088866,38.6339 39.02451,39.10004 14.81008,0.36458 61.24767,-0.39506 102.51836,-0.17739 39.09881,0.20627 71.19941,-0.13104 95.34332,0.0101 20.82134,0.11994 38.97573,18.00838 39.06275,39.87115 0,0 -0.46485,-39.4669 39.51401,-39.4672 43.32158,-3e-4 149.5711,-0.28108 197.2064,-0.17547 44.38344,0.0979 36.82078,-42.33793 37.72722,-43.08102 l 1.23329,-589.17748 z"
       id="path3001"
       inkscape:connector-curvature="0"
       sodipodi:nodetypes="ccssscssccc" />
  </g>
</svg>
